<?xml version="1.0" encoding="utf-8"?>
<!-- Generator: Adobe Illustrator 27.6.1, SVG Export Plug-In . SVG Version: 6.00 Build 0)  -->
<svg version="1.1" id="Layer_1" xmlns="http://www.w3.org/2000/svg" xmlns:xlink="http://www.w3.org/1999/xlink" x="0px" y="0px"
	 viewBox="0 0 283.46 283.46" style="enable-background:new 0 0 283.46 283.46;" xml:space="preserve">
<style type="text/css">
	.st0{fill:#03615F;}
	.st1{fill:#C8B275;}
	.st2{fill:#535661;}
</style>
<g>
	<g>
		<path class="st0" d="M206.2,209.77v-2.58c5.13,0,12.51-0.73,12.51-11.48v-21.09h7.03v22.48
			C225.74,208.66,212.39,209.77,206.2,209.77z"/>
		<path class="st0" d="M157.76,158.32v51.45h-7.03v-44.28c0-3.02-1.9-5.62-6.26-6.82v-0.35H157.76z"/>
		<path class="st0" d="M138.86,174.56h-7.03v23.27c0,6.68-3.94,9.63-6.96,9.63c-4.29,0-6.89-1.97-8.79-4.57l-0.07-28.33h-7.03v23.27
			c0,6.68-3.94,9.63-6.96,9.63c-4.22,0-7.1-2.25-8.93-4.5v-5.39c-0.02,0.03-0.05,0.06-0.07,0.09v-9.32v-13.78H80.37v0.32
			c3.88,1.08,5.66,3.43,5.66,6.17v7.29v17.77c0,13.99-11.83,13.16-11.83,13.16c-3.69,0-14.63-1.46-14.63-13.16v-24.65h-2.86v24.65
			c0,2.86,0.51,15.96,18.12,15.96c0,0,16.83,0.82,18.1-14.13c0.05,0.04,0.1,0.08,0.16,0.12v-2c2.18,2.04,5.13,3.73,9,3.73
			c6.33,0,10.26-2.04,12.3-5.13c2.53,2.95,6.12,5.13,10.54,5.13c9.98,0,13.99-5.9,13.99-11.53L138.86,174.56z"/>
		<path class="st0" d="M183.47,174.56c-5.33,0-8.7,1.7-10.86,3.95c0,0-0.02-0.03-0.02-0.03s-0.41,0.41-0.95,1.14
			c-0.06,0.09-0.12,0.17-0.18,0.26c-1.63,2.27-4.11,7.06-1.07,12.34c0.26,0.45,0.53,0.88,0.81,1.27c0.19,0.28,0.4,0.53,0.62,0.79
			c0.54,0.66,1.09,1.22,1.66,1.7c0.03,0.03,0.06,0.06,0.09,0.08c1.42,1.19,2.87,1.86,4.12,2.23c4.38,1.69,9.57,2,13.67,2.04
			c-3.51,8.4-12.57,12.33-21.18,2.29l-1.2,1.12c0.42,0.91,4.36,7.03,14.48,7.03c10.83,0,17.15-7.87,17.15-18.14
			C200.62,182.36,194.3,174.56,183.47,174.56z M188.11,197.82c-0.96,0-4.6-0.3-7.38-3.12c-3.09-3.33-3.37-7.56-3.14-10.29
			c0-0.04,0.01-0.09,0.01-0.13c0.01-0.07,0.02-0.12,0.02-0.18c0.08-0.64,0.16-1.24,0.28-1.79c0,0,0-0.01,0-0.01
			c0.73-3.54,2.32-5.27,5.49-5.27c4.43,0,8.36,2.46,9.28,11.32l0.21,2.67v1.62c0,1.82-0.25,3.56-0.68,5.2H188.11z"/>
		<g>
			<path class="st1" d="M224.71,158.32l2.04,3.4l-24.93,4.08l0.09-0.59L224.71,158.32z"/>
		</g>
	</g>
	<path class="st1" d="M100.95,84.81l1.56,1.14l7.48,5.48v-5.39V85.1l0.68-0.67l23.11-22.74l1.76-1.73l1.59,1.89l30.17,35.77
		c4.86-7.12,7.7-15.72,7.7-24.98v0c0-24.51-19.87-44.39-44.39-44.39H86.22v70.85l13.34-12.94L100.95,84.81z"/>
	<g>
		<path class="st0" d="M169.23,103.8l-11.21,4.1c3.89-2.56,6.58-5.8,8.04-7.85c0,0,0,0,0,0l-0.17-0.2l-30.51-36.17l0,0v53.43v19.91
			h0h51.31h10.55L169.23,103.8z"/>
		<polygon class="st0" points="101.15,88.15 101.15,117.36 101.15,137.23 121.18,137.23 122.68,137.23 122.68,137.01 122.68,117.36 
			122.68,102.96 112.27,95.8 		"/>
	</g>
	<g>
		<g>
			<path class="st2" d="M70.6,240.9c-0.92-1.05-1.94-1.57-3.06-1.57c-0.63,0-1.12,0.19-1.49,0.56c-0.36,0.37-0.55,0.88-0.55,1.52
				v0.04c0.01,0.67,0.22,1.2,0.61,1.57c0.39,0.38,1.16,0.77,2.3,1.16c1.2,0.42,2.01,0.85,2.44,1.27c0.43,0.42,0.65,1.02,0.65,1.79
				c0,1.3-0.62,2.36-1.86,3.19c-1.17,0.79-2.68,1.18-4.55,1.18c-2.25,0-3.94-0.66-5.07-1.97c-0.85-0.98-1.27-2.18-1.27-3.61
				c0-1.25,0.32-2.33,0.96-3.24l1.42-0.28c-0.7,1.06-1.05,2.2-1.05,3.41c0,1.33,0.46,2.38,1.38,3.17c0.89,0.77,2.1,1.16,3.63,1.16
				c1.68,0,2.97-0.35,3.89-1.05c0.71-0.55,1.07-1.21,1.07-1.97c0-0.45-0.16-0.81-0.48-1.07c-0.32-0.26-0.95-0.56-1.9-0.9
				c-1.22-0.44-2.08-0.87-2.56-1.29c-0.69-0.63-1.03-1.48-1.03-2.56c0-1.12,0.4-2,1.2-2.65c0.63-0.5,1.34-0.74,2.14-0.74
				c1.28,0,2.34,0.48,3.17,1.44V240.9z M63.71,255.23c-0.6,0-0.9-0.3-0.9-0.9c0-0.6,0.3-0.9,0.9-0.9c0.57,0,0.85,0.3,0.85,0.9
				C64.57,254.93,64.28,255.23,63.71,255.23z M66.21,255.23c-0.58,0-0.87-0.3-0.87-0.9c0-0.6,0.29-0.9,0.87-0.9
				c0.58,0,0.87,0.3,0.87,0.9C67.08,254.93,66.79,255.23,66.21,255.23z"/>
			<path class="st2" d="M79.61,246.41c0,2.65-0.98,4.31-2.93,4.99c-0.47,0.16-0.96,0.24-1.49,0.24c-0.85,0-1.66-0.2-2.45-0.61v-1.29
				c0.74,0.41,1.5,0.61,2.27,0.61c0.61,0,1.15-0.14,1.62-0.42c1.02-0.61,1.53-1.76,1.53-3.43v-7.63l1.44-0.77V246.41z"/>
			<path class="st2" d="M87.24,247.46c-1.24,0-2.19-0.4-2.86-1.2c-0.55-0.69-0.83-1.55-0.83-2.6v-9.53l1.47-0.77v10.26
				c0,1.66,0.8,2.49,2.41,2.49h0.77v1.36H87.24z"/>
			<path class="st2" d="M87.75,247.46v-1.36h2.97v1.36H87.75z"/>
			<path class="st2" d="M98.88,246.11h4v1.36h-4.94c-0.5,0-0.95-0.05-1.36-0.15c-0.41,0.1-0.86,0.15-1.36,0.15h-4.94v-1.36h4.02
				c-1.15-1.06-1.73-2.33-1.73-3.78c0-1.41,0.39-2.54,1.18-3.37c0.71-0.74,1.65-1.12,2.82-1.12c1.33,0,2.35,0.48,3.08,1.44
				c0.61,0.8,0.92,1.82,0.92,3.04C100.58,243.8,100.01,245.06,98.88,246.11z M96.67,245.91c0.74-0.26,1.35-0.73,1.83-1.41
				c0.47-0.68,0.71-1.41,0.71-2.2c0-0.96-0.24-1.72-0.71-2.29c-0.47-0.56-1.11-0.84-1.91-0.84c-0.8,0-1.44,0.28-1.9,0.84
				c-0.47,0.56-0.7,1.32-0.7,2.26c0,0.8,0.23,1.54,0.7,2.22c0.47,0.68,1.07,1.15,1.81,1.41l0.09,0.02l0.04-0.02H96.67z
				 M95.36,235.28c-0.6,0-0.9-0.31-0.9-0.92c0-0.58,0.3-0.87,0.9-0.87c0.57,0,0.85,0.29,0.85,0.87
				C96.21,234.98,95.92,235.28,95.36,235.28z M97.85,235.28c-0.6,0-0.9-0.31-0.9-0.92c0-0.58,0.3-0.87,0.9-0.87
				c0.57,0,0.85,0.29,0.85,0.87C98.7,234.98,98.42,235.28,97.85,235.28z"/>
			<path class="st2" d="M102.44,247.46v-1.36h2.97v1.36H102.44z"/>
			<path class="st2" d="M120.59,247.46h-5.4c-0.79,0-1.59-0.17-2.41-0.5c-0.83,0.34-1.64,0.5-2.43,0.5h-5.38v-1.36h5.29
				c0.29,0,0.59-0.02,0.9-0.07c-1.15-0.83-2.41-2.2-3.76-4.11v-0.9c1.52-2.13,3.3-3.19,5.36-3.19c2.04,0,3.83,1.08,5.38,3.24v0.85
				c-1.36,1.91-2.6,3.28-3.74,4.11c0.29,0.04,0.58,0.07,0.87,0.07h5.29L120.59,247.46z M108.67,241.49
				c1.53,2.04,2.89,3.37,4.09,3.98c1.18-0.61,2.55-1.95,4.11-4c-1.17-1.53-2.54-2.3-4.11-2.3h-0.07
				C111.21,239.17,109.87,239.95,108.67,241.49z"/>
			<path class="st2" d="M120.15,247.46v-1.36h0.61c1.66,0,2.49-0.86,2.49-2.58v-9.4l1.47-0.77v10.19c0,1.24-0.36,2.22-1.09,2.93
				c-0.69,0.66-1.59,0.98-2.71,0.98H120.15z"/>
			<path class="st2" d="M128.66,247.46v-13.34l1.47-0.77v14.1H128.66z"/>
			<path class="st2" d="M142.17,246.41c0,2.65-0.98,4.31-2.93,4.99c-0.47,0.16-0.96,0.24-1.49,0.24c-0.85,0-1.66-0.2-2.45-0.61
				v-1.29c0.74,0.41,1.5,0.61,2.27,0.61c0.61,0,1.15-0.14,1.62-0.42c1.02-0.61,1.53-1.76,1.53-3.43v-7.63l1.44-0.77V246.41z"/>
			<path class="st2" d="M149.8,247.46c-1.24,0-2.19-0.4-2.86-1.2c-0.55-0.69-0.83-1.55-0.83-2.6v-9.53l1.47-0.77v10.26
				c0,1.66,0.8,2.49,2.41,2.49h0.77v1.36H149.8z"/>
			<path class="st2" d="M150.31,247.46v-1.36h2.97v1.36H150.31z"/>
			<path class="st2" d="M166.6,246.11h0.74v1.36h-0.94c-1.33,0-2.32-0.46-2.97-1.38c-0.73,1.21-1.84,1.81-3.32,1.81
				c-1.5,0-2.61-0.6-3.32-1.79c-0.67,0.9-1.67,1.36-3,1.36h-0.94v-1.36h0.77c1.6,0,2.41-0.83,2.41-2.49v-0.74
				c0-1.68,0.41-2.96,1.22-3.85c0.71-0.79,1.67-1.18,2.86-1.18c1.37,0,2.41,0.51,3.13,1.53c0.63,0.87,0.94,2.04,0.94,3.5v0.74
				C164.17,245.28,164.98,246.11,166.6,246.11z M160.1,246.54c0.8,0,1.44-0.33,1.9-0.99c0.47-0.66,0.7-1.56,0.7-2.7
				c0-2.45-0.87-3.67-2.6-3.67c-1.75,0-2.62,1.22-2.62,3.67C157.48,245.31,158.35,246.54,160.1,246.54z"/>
			<path class="st2" d="M173.95,246.11h0.77v1.36h-0.94c-1.31,0-2.3-0.44-2.95-1.33c-0.69,0.89-1.68,1.33-2.97,1.33h-0.94v-1.36
				h0.77c1.6,0,2.41-0.83,2.41-2.49v-4.75l1.47-0.77v5.51C171.54,245.28,172.34,246.11,173.95,246.11z M169.2,235.28
				c-0.6,0-0.9-0.3-0.9-0.9c0-0.6,0.3-0.9,0.9-0.9c0.57,0,0.85,0.3,0.85,0.9C170.05,234.98,169.77,235.28,169.2,235.28z
				 M170.42,233.01c-0.57,0-0.85-0.29-0.85-0.87c0-0.57,0.28-0.85,0.85-0.85c0.55,0,0.83,0.28,0.83,0.85
				C171.26,232.72,170.98,233.01,170.42,233.01z M170.8,234.39c0-0.6,0.3-0.9,0.9-0.9c0.57,0,0.85,0.3,0.85,0.9
				c0,0.6-0.28,0.9-0.85,0.9C171.1,235.28,170.8,234.98,170.8,234.39z"/>
			<path class="st2" d="M181.31,246.11h0.77v1.36h-0.94c-1.31,0-2.3-0.44-2.95-1.33c-0.69,0.89-1.68,1.33-2.97,1.33h-0.94v-1.36
				h0.77c1.6,0,2.41-0.83,2.41-2.49v-4.75l1.47-0.77v5.51C178.91,245.28,179.71,246.11,181.31,246.11z M176.48,235.28
				c-0.58,0-0.87-0.3-0.87-0.9c0-0.6,0.29-0.9,0.87-0.9c0.58,0,0.87,0.3,0.87,0.9C177.36,234.98,177.07,235.28,176.48,235.28z
				 M178.98,235.28c-0.58,0-0.87-0.3-0.87-0.9c0-0.6,0.29-0.9,0.87-0.9c0.58,0,0.87,0.3,0.87,0.9
				C179.85,234.98,179.56,235.28,178.98,235.28z"/>
			<path class="st2" d="M181.64,247.46v-1.36h2.97v1.36H181.64z"/>
			<path class="st2" d="M184.18,247.46v-1.36h1.33c1.62,0,2.43-0.83,2.43-2.49v-3.15l1.47-0.77v3.91c0,1.66,0.8,2.49,2.41,2.49h0.81
				c1.6,0,2.41-0.83,2.41-2.49v-3.94l1.47-0.79v4.72c0,1.66,0.81,2.49,2.43,2.49h0.79c1.62,0,2.43-0.83,2.43-2.49v-4.75l1.47-0.77
				v5.55c0,1.21-0.36,2.16-1.07,2.84c-0.64,0.63-1.51,0.95-2.6,0.96h-1.2c-1.36,0-2.34-0.48-2.95-1.44
				c-0.63,0.96-1.6,1.44-2.93,1.44h-1.2c-1.36,0-2.35-0.48-2.97-1.44c-0.61,0.96-1.6,1.44-2.95,1.44H184.18z"/>
			<path class="st2" d="M219.39,246.11h0.77v1.36h-0.94c-1.34,0-2.34-0.46-3-1.38c-0.69,0.92-1.7,1.38-3.04,1.38H206l0.7-1.36h3.35
				v-9.14l1.44-0.77v9.91h1.53c1.66,0,2.49-0.86,2.49-2.58v-9.4l1.44-0.77v4.77l0.02-0.02v5.51
				C216.98,245.28,217.78,246.11,219.39,246.11z M211.86,250.44c-0.29-0.22-0.58-0.33-0.85-0.33c-0.23,0-0.43,0.08-0.59,0.23
				c-0.16,0.15-0.24,0.33-0.24,0.54c0,0.25,0.1,0.5,0.31,0.74h1.92l-0.42,0.79h-3.39l0.42-0.79h0.57c-0.15-0.26-0.22-0.52-0.22-0.79
				c0-0.41,0.15-0.76,0.46-1.06c0.31-0.3,0.67-0.45,1.09-0.45c0.32,0,0.63,0.09,0.94,0.28V250.44z"/>
			<path class="st2" d="M219.71,247.46v-1.36h0.61c1.66,0,2.49-0.86,2.49-2.58v-9.4l1.47-0.77v10.19c0,1.24-0.36,2.22-1.09,2.93
				c-0.69,0.66-1.59,0.98-2.71,0.98H219.71z"/>
		</g>
	</g>
</g>
</svg>
