<svg width="20" height="20" viewBox="0 0 20 20" fill="none" xmlns="http://www.w3.org/2000/svg">
    <g clip-path="url(#clip0_532_360)">
        <path d="M10.0001 0.423096C4.71169 0.423096 0.384766 4.7404 0.384766 10.0577C0.384766 14.8654 3.904 18.8558 8.50015 19.577V12.8462H6.05784V10.0577H8.50015V7.93271C8.50015 5.51925 9.93284 4.19233 12.1348 4.19233C13.1828 4.19233 14.279 4.37502 14.279 4.37502V6.75002H13.0675C11.8751 6.75002 11.5002 7.4904 11.5002 8.25004V10.0577H14.1732L13.7405 12.8462H11.5002V19.577C13.7659 19.2191 15.8292 18.063 17.3174 16.3173C18.8055 14.5718 19.6207 12.3516 19.6155 10.0577C19.6155 4.7404 15.2886 0.423096 10.0001 0.423096Z"
              fill="white"/>
    </g>
    <defs>
        <clipPath id="clip0_532_360">
            <rect width="20" height="20" fill="white"/>
        </clipPath>
    </defs>
</svg>
