<svg width="20" height="20" viewBox="0 0 20 20" fill="none" xmlns="http://www.w3.org/2000/svg">
    <g clip-path="url(#clip0_540_6743)">
        <path fill-rule="evenodd" clip-rule="evenodd"
              d="M10.0002 15.3574C12.9589 15.3574 15.3574 12.9589 15.3574 10.0002C15.3574 7.04154 12.9589 4.64307 10.0002 4.64307C7.04154 4.64307 4.64307 7.04154 4.64307 10.0002C4.64307 12.9589 7.04154 15.3574 10.0002 15.3574ZM10.0002 13.5716C11.9726 13.5716 13.5716 11.9726 13.5716 10.0002C13.5716 8.02776 11.9726 6.42878 10.0002 6.42878C8.02776 6.42878 6.42878 8.02776 6.42878 10.0002C6.42878 11.9726 8.02776 13.5716 10.0002 13.5716Z"
              fill="white"/>
        <path d="M15.3572 3.75C14.8641 3.75 14.4644 4.14975 14.4644 4.64286C14.4644 5.13596 14.8641 5.53571 15.3572 5.53571C15.8503 5.53571 16.2501 5.13596 16.2501 4.64286C16.2501 4.14975 15.8503 3.75 15.3572 3.75Z"
              fill="white"/>
        <path fill-rule="evenodd" clip-rule="evenodd"
              d="M0.762604 3.10376C0.178711 4.24972 0.178711 5.74986 0.178711 8.75014V11.2501C0.178711 14.2504 0.178711 15.7506 0.762604 16.8965C1.27621 17.9045 2.09575 18.7241 3.10376 19.2376C4.24972 19.8216 5.74986 19.8216 8.75014 19.8216H11.2501C14.2504 19.8216 15.7506 19.8216 16.8965 19.2376C17.9045 18.7241 18.7241 17.9045 19.2376 16.8965C19.8216 15.7506 19.8216 14.2504 19.8216 11.2501V8.75014C19.8216 5.74986 19.8216 4.24972 19.2376 3.10376C18.7241 2.09575 17.9045 1.27621 16.8965 0.762604C15.7506 0.178711 14.2504 0.178711 11.2501 0.178711H8.75014C5.74986 0.178711 4.24972 0.178711 3.10376 0.762604C2.09575 1.27621 1.27621 2.09575 0.762604 3.10376ZM11.2501 1.96443H8.75014C7.22053 1.96443 6.18072 1.96582 5.377 2.03148C4.5941 2.09544 4.19375 2.21138 3.91446 2.35368C3.24245 2.69609 2.69609 3.24245 2.35368 3.91446C2.21138 4.19375 2.09544 4.5941 2.03148 5.377C1.96582 6.18072 1.96443 7.22053 1.96443 8.75014V11.2501C1.96443 12.7798 1.96582 13.8195 2.03148 14.6233C2.09544 15.4062 2.21138 15.8066 2.35368 16.0859C2.69609 16.7578 3.24245 17.3042 3.91446 17.6466C4.19375 17.7889 4.5941 17.9049 5.377 17.9688C6.18072 18.0344 7.22053 18.0359 8.75014 18.0359H11.2501C12.7798 18.0359 13.8195 18.0344 14.6233 17.9688C15.4062 17.9049 15.8066 17.7889 16.0859 17.6466C16.7578 17.3042 17.3042 16.7578 17.6466 16.0859C17.7889 15.8066 17.9049 15.4062 17.9688 14.6233C18.0344 13.8195 18.0359 12.7798 18.0359 11.2501V8.75014C18.0359 7.22053 18.0344 6.18072 17.9688 5.377C17.9049 4.5941 17.7889 4.19375 17.6466 3.91446C17.3042 3.24245 16.7578 2.69609 16.0859 2.35368C15.8066 2.21138 15.4062 2.09544 14.6233 2.03148C13.8195 1.96582 12.7798 1.96443 11.2501 1.96443Z"
              fill="white"/>
    </g>
    <defs>
        <clipPath id="clip0_540_6743">
            <rect width="20" height="20" fill="white"/>
        </clipPath>
    </defs>
</svg>
