<svg width="255" height="20" viewBox="0 0 255 20" fill="none" xmlns="http://www.w3.org/2000/svg">
    <g clip-path="url(#clip0_522_33564)">
        <path fill-rule="evenodd" clip-rule="evenodd"
              d="M22.7159 9.6652L16.5263 9.61558L19.7377 6.14335L25 6.18565L22.7159 9.6652ZM15.5429 8.84755L15.5536 2.48698L18.9627 0.0162194L18.9537 5.4227L15.5429 8.84755ZM18.979 20.2861L15.5961 17.9649L15.4192 11.6055L18.883 14.8804L18.979 20.2861ZM11.1447 0L14.5498 2.38505V8.74562L11.1447 5.40648V0ZM7.32152 9.6997L5 6.20139H10.2625L13.5127 9.6997H7.32152ZM13.5127 10.7918L10.2625 14.2901H5L7.32152 10.7918H13.5127ZM14.5034 11.6064L14.3344 18.0134L10.8802 20.4651L10.9717 14.909L14.5034 11.6064ZM22.5698 10.7834L24.8321 14.4242L19.5704 14.2287L16.3796 10.673L22.5698 10.7834Z"
              fill="#28605F"/>
    </g>
    <g clip-path="url(#clip1_522_33564)">
        <path fill-rule="evenodd" clip-rule="evenodd"
              d="M147.716 9.6652L141.526 9.61558L144.738 6.14335L150 6.18565L147.716 9.6652ZM140.543 8.84755L140.554 2.48698L143.963 0.0162194L143.954 5.4227L140.543 8.84755ZM143.979 20.2861L140.596 17.9649L140.419 11.6055L143.883 14.8804L143.979 20.2861ZM136.145 0L139.55 2.38505V8.74562L136.145 5.40648V0ZM132.322 9.6997L130 6.20139H135.262L138.513 9.6997H132.322ZM138.513 10.7918L135.262 14.2901H130L132.322 10.7918H138.513ZM139.503 11.6064L139.334 18.0134L135.88 20.4651L135.972 14.909L139.503 11.6064ZM147.57 10.7834L149.832 14.4242L144.57 14.2287L141.38 10.673L147.57 10.7834Z"
              fill="#28605F"/>
    </g>
    <g clip-path="url(#clip2_522_33564)">
        <path fill-rule="evenodd" clip-rule="evenodd"
              d="M47.7159 9.6652L41.5263 9.61558L44.7377 6.14335L50 6.18565L47.7159 9.6652ZM40.5429 8.84755L40.5536 2.48698L43.9627 0.0162194L43.9537 5.4227L40.5429 8.84755ZM43.979 20.2861L40.5961 17.9649L40.4192 11.6055L43.883 14.8804L43.979 20.2861ZM36.1447 0L39.5498 2.38505V8.74562L36.1447 5.40648V0ZM32.3215 9.6997L30 6.20139H35.2625L38.5127 9.6997H32.3215ZM38.5127 10.7918L35.2625 14.2901H30L32.3215 10.7918H38.5127ZM39.5034 11.6064L39.3344 18.0134L35.8802 20.4651L35.9717 14.909L39.5034 11.6064ZM47.5698 10.7834L49.8321 14.4242L44.5704 14.2287L41.3796 10.673L47.5698 10.7834Z"
              fill="#28605F"/>
    </g>
    <g clip-path="url(#clip3_522_33564)">
        <path fill-rule="evenodd" clip-rule="evenodd"
              d="M172.716 9.6652L166.526 9.61558L169.738 6.14335L175 6.18565L172.716 9.6652ZM165.543 8.84755L165.554 2.48698L168.963 0.0162194L168.954 5.4227L165.543 8.84755ZM168.979 20.2861L165.596 17.9649L165.419 11.6055L168.883 14.8804L168.979 20.2861ZM161.145 0L164.55 2.38505V8.74562L161.145 5.40648V0ZM157.322 9.6997L155 6.20139H160.262L163.513 9.6997H157.322ZM163.513 10.7918L160.262 14.2901H155L157.322 10.7918H163.513ZM164.503 11.6064L164.334 18.0134L160.88 20.4651L160.972 14.909L164.503 11.6064ZM172.57 10.7834L174.832 14.4242L169.57 14.2287L166.38 10.673L172.57 10.7834Z"
              fill="#28605F"/>
    </g>
    <g clip-path="url(#clip4_522_33564)">
        <path fill-rule="evenodd" clip-rule="evenodd"
              d="M72.7159 9.6652L66.5263 9.61558L69.7377 6.14335L75 6.18565L72.7159 9.6652ZM65.5429 8.84755L65.5536 2.48698L68.9627 0.0162194L68.9537 5.4227L65.5429 8.84755ZM68.979 20.2861L65.5961 17.9649L65.4192 11.6055L68.883 14.8804L68.979 20.2861ZM61.1447 0L64.5498 2.38505V8.74562L61.1447 5.40648V0ZM57.3215 9.6997L55 6.20139H60.2625L63.5127 9.6997H57.3215ZM63.5127 10.7918L60.2625 14.2901H55L57.3215 10.7918H63.5127ZM64.5034 11.6064L64.3344 18.0134L60.8802 20.4651L60.9717 14.909L64.5034 11.6064ZM72.5698 10.7834L74.8321 14.4242L69.5704 14.2287L66.3796 10.673L72.5698 10.7834Z"
              fill="#28605F"/>
    </g>
    <g clip-path="url(#clip5_522_33564)">
        <path fill-rule="evenodd" clip-rule="evenodd"
              d="M197.716 9.6652L191.526 9.61558L194.738 6.14335L200 6.18565L197.716 9.6652ZM190.543 8.84755L190.554 2.48698L193.963 0.0162194L193.954 5.4227L190.543 8.84755ZM193.979 20.2861L190.596 17.9649L190.419 11.6055L193.883 14.8804L193.979 20.2861ZM186.145 0L189.55 2.38505V8.74562L186.145 5.40648V0ZM182.322 9.6997L180 6.20139H185.262L188.513 9.6997H182.322ZM188.513 10.7918L185.262 14.2901H180L182.322 10.7918H188.513ZM189.503 11.6064L189.334 18.0134L185.88 20.4651L185.972 14.909L189.503 11.6064ZM197.57 10.7834L199.832 14.4242L194.57 14.2287L191.38 10.673L197.57 10.7834Z"
              fill="#28605F"/>
    </g>
    <g clip-path="url(#clip6_522_33564)">
        <path fill-rule="evenodd" clip-rule="evenodd"
              d="M97.7159 9.6652L91.5263 9.61558L94.7377 6.14335L100 6.18565L97.7159 9.6652ZM90.5429 8.84755L90.5536 2.48698L93.9627 0.0162194L93.9537 5.4227L90.5429 8.84755ZM93.979 20.2861L90.5961 17.9649L90.4192 11.6055L93.883 14.8804L93.979 20.2861ZM86.1447 0L89.5498 2.38505V8.74562L86.1447 5.40648V0ZM82.3215 9.6997L80 6.20139H85.2625L88.5127 9.6997H82.3215ZM88.5127 10.7918L85.2625 14.2901H80L82.3215 10.7918H88.5127ZM89.5034 11.6064L89.3344 18.0134L85.8802 20.4651L85.9717 14.909L89.5034 11.6064ZM97.5698 10.7834L99.8321 14.4242L94.5704 14.2287L91.3796 10.673L97.5698 10.7834Z"
              fill="#28605F"/>
    </g>
    <g clip-path="url(#clip7_522_33564)">
        <path fill-rule="evenodd" clip-rule="evenodd"
              d="M222.716 9.6652L216.526 9.61558L219.738 6.14335L225 6.18565L222.716 9.6652ZM215.543 8.84755L215.554 2.48698L218.963 0.0162194L218.954 5.4227L215.543 8.84755ZM218.979 20.2861L215.596 17.9649L215.419 11.6055L218.883 14.8804L218.979 20.2861ZM211.145 0L214.55 2.38505V8.74562L211.145 5.40648V0ZM207.322 9.6997L205 6.20139H210.262L213.513 9.6997H207.322ZM213.513 10.7918L210.262 14.2901H205L207.322 10.7918H213.513ZM214.503 11.6064L214.334 18.0134L210.88 20.4651L210.972 14.909L214.503 11.6064ZM222.57 10.7834L224.832 14.4242L219.57 14.2287L216.38 10.673L222.57 10.7834Z"
              fill="#28605F"/>
    </g>
    <g clip-path="url(#clip8_522_33564)">
        <path fill-rule="evenodd" clip-rule="evenodd"
              d="M122.716 9.6652L116.526 9.61558L119.738 6.14335L125 6.18565L122.716 9.6652ZM115.543 8.84755L115.554 2.48698L118.963 0.0162194L118.954 5.4227L115.543 8.84755ZM118.979 20.2861L115.596 17.9649L115.419 11.6055L118.883 14.8804L118.979 20.2861ZM111.145 0L114.55 2.38505V8.74562L111.145 5.40648V0ZM107.322 9.6997L105 6.20139H110.262L113.513 9.6997H107.322ZM113.513 10.7918L110.262 14.2901H105L107.322 10.7918H113.513ZM114.503 11.6064L114.334 18.0134L110.88 20.4651L110.972 14.909L114.503 11.6064ZM122.57 10.7834L124.832 14.4242L119.57 14.2287L116.38 10.673L122.57 10.7834Z"
              fill="#28605F"/>
    </g>
    <g clip-path="url(#clip9_522_33564)">
        <path fill-rule="evenodd" clip-rule="evenodd"
              d="M247.716 9.6652L241.526 9.61558L244.738 6.14335L250 6.18565L247.716 9.6652ZM240.543 8.84755L240.554 2.48698L243.963 0.0162194L243.954 5.4227L240.543 8.84755ZM243.979 20.2861L240.596 17.9649L240.419 11.6055L243.883 14.8804L243.979 20.2861ZM236.145 0L239.55 2.38505V8.74562L236.145 5.40648V0ZM232.322 9.6997L230 6.20139H235.262L238.513 9.6997H232.322ZM238.513 10.7918L235.262 14.2901H230L232.322 10.7918H238.513ZM239.503 11.6064L239.334 18.0134L235.88 20.4651L235.972 14.909L239.503 11.6064ZM247.57 10.7834L249.832 14.4242L244.57 14.2287L241.38 10.673L247.57 10.7834Z"
              fill="#28605F"/>
    </g>
    <rect x="2.12109" y="8" width="3" height="3" transform="rotate(45 2.12109 8)" fill="#C8B275"/>
    <rect x="127.121" y="8" width="3" height="3" transform="rotate(45 127.121 8)" fill="#C8B275"/>
    <rect x="27.1211" y="8" width="3" height="3" transform="rotate(45 27.1211 8)" fill="#C8B275"/>
    <rect x="152.121" y="8" width="3" height="3" transform="rotate(45 152.121 8)" fill="#C8B275"/>
    <rect x="52.1211" y="8" width="3" height="3" transform="rotate(45 52.1211 8)" fill="#C8B275"/>
    <rect x="177.121" y="8" width="3" height="3" transform="rotate(45 177.121 8)" fill="#C8B275"/>
    <rect x="77.1211" y="8" width="3" height="3" transform="rotate(45 77.1211 8)" fill="#C8B275"/>
    <rect x="202.121" y="8" width="3" height="3" transform="rotate(45 202.121 8)" fill="#C8B275"/>
    <rect x="102.121" y="8" width="3" height="3" transform="rotate(45 102.121 8)" fill="#C8B275"/>
    <rect x="227.121" y="8" width="3" height="3" transform="rotate(45 227.121 8)" fill="#C8B275"/>
    <rect x="252.121" y="8" width="3" height="3" transform="rotate(45 252.121 8)" fill="#C8B275"/>
    <defs>
        <clipPath id="clip0_522_33564">
            <rect width="20" height="20" fill="white" transform="translate(5)"/>
        </clipPath>
        <clipPath id="clip1_522_33564">
            <rect width="20" height="20" fill="white" transform="translate(130)"/>
        </clipPath>
        <clipPath id="clip2_522_33564">
            <rect width="20" height="20" fill="white" transform="translate(30)"/>
        </clipPath>
        <clipPath id="clip3_522_33564">
            <rect width="20" height="20" fill="white" transform="translate(155)"/>
        </clipPath>
        <clipPath id="clip4_522_33564">
            <rect width="20" height="20" fill="white" transform="translate(55)"/>
        </clipPath>
        <clipPath id="clip5_522_33564">
            <rect width="20" height="20" fill="white" transform="translate(180)"/>
        </clipPath>
        <clipPath id="clip6_522_33564">
            <rect width="20" height="20" fill="white" transform="translate(80)"/>
        </clipPath>
        <clipPath id="clip7_522_33564">
            <rect width="20" height="20" fill="white" transform="translate(205)"/>
        </clipPath>
        <clipPath id="clip8_522_33564">
            <rect width="20" height="20" fill="white" transform="translate(105)"/>
        </clipPath>
        <clipPath id="clip9_522_33564">
            <rect width="20" height="20" fill="white" transform="translate(230)"/>
        </clipPath>
    </defs>
</svg>
