<svg width="22" height="24" viewBox="0 0 22 24" fill="none" xmlns="http://www.w3.org/2000/svg">
    <path d="M18.292 3.02048C14.2648 -1.00683 7.73521 -1.00683 3.70795 3.02048C-0.319317 7.0478 -0.319317 13.5773 3.70795 17.6046L9.46921 23.3659C9.87515 23.7719 10.4258 24 11 24C11.5741 24 12.1248 23.7719 12.5308 23.3659L18.292 17.6046C22.3193 13.5773 22.3193 7.0478 18.292 3.02048ZM11 14.0625C8.92889 14.0625 7.24996 12.3836 7.24996 10.3125C7.24996 8.24142 8.92889 6.5625 11 6.5625C13.071 6.5625 14.75 8.24142 14.75 10.3125C14.75 12.3836 13.071 14.0625 11 14.0625Z"
          fill="#C8B275"/>
</svg>
