<svg width="30" height="30" viewBox="0 0 30 30" fill="none" xmlns="http://www.w3.org/2000/svg">
    <g clip-path="url(#clip0_461_3084)">
        <path d="M28.8521 15.6519H1.27828C0.730455 15.6519 0 15.7823 0 16.891V28.6758C0 29.0019 0.234782 29.2953 0.554368 29.341C0.958695 29.3997 1.30439 29.0867 1.30439 28.6954V21.5214H28.6957V28.6757C28.6957 29.0018 28.9305 29.2953 29.25 29.341C29.6544 29.3997 30.0001 29.0866 30.0001 28.6953V16.891C30 16.291 29.9087 15.6519 28.8521 15.6519ZM28.6956 20.2171H1.30433V16.9562H28.6956V20.2171Z"
              fill="#C8B275"/>
        <path d="M15.6518 13.0432C15.2605 13.0432 14.9474 13.3888 15.0061 13.7932C15.0518 14.1193 15.3453 14.3476 15.6713 14.3476H22.8061C23.1322 14.3476 23.4256 14.1128 23.4713 13.7932C23.53 13.3889 23.217 13.0432 22.8257 13.0432H15.6518Z"
              fill="#C8B275"/>
        <path d="M10.4344 11.7388H28.0431C28.4018 11.7388 28.6953 11.4454 28.6953 11.0867V1.30405C28.6953 0.945333 28.4018 0.651855 28.0431 0.651855H10.4344C10.0757 0.651855 9.78223 0.945333 9.78223 1.30405V11.0867C9.78223 11.4454 10.0757 11.7388 10.4344 11.7388ZM11.0866 1.95624H27.3909V10.4345H11.0866V1.95624Z"
              fill="#C8B275"/>
        <path d="M1.95688 14.3476H7.82644C8.18516 14.3476 8.47864 14.0541 8.47864 13.6954V1.95627C8.47864 1.59756 8.18516 1.30408 7.82644 1.30408H1.95688C1.59817 1.30408 1.30469 1.59756 1.30469 1.95627V13.6954C1.30469 14.0541 1.59817 14.3476 1.95688 14.3476ZM2.60908 2.60846H7.17431V13.0433H2.60908V2.60846Z"
              fill="#C8B275"/>
    </g>
    <defs>
        <clipPath id="clip0_461_3084">
            <rect width="30" height="30" fill="white"/>
        </clipPath>
    </defs>
</svg>
