<svg width="24" height="24" viewBox="0 0 24 24" fill="none" xmlns="http://www.w3.org/2000/svg">
    <path d="M23.25 7.83113C23.25 5.9025 22.3549 4.23413 21.0499 3.41025C19.3264 2.27363 15.9169 1.49963 11.9914 1.5C7.473 1.49963 3.64013 2.5245 2.27363 3.94688C1.34625 4.8585 0.75 6.25838 0.75 7.8315C0.75 8.75325 4.368 9.057 6.76388 8.74538C6.72788 8.80838 6.6975 8.874 6.66562 8.93888C5.90887 9.93225 5.295 11.7368 4.90575 13.1153C3.4005 14.3216 2.418 16.6601 2.418 16.6601V19.392C2.4173 19.7929 2.57588 20.1777 2.85887 20.4618C3.14185 20.7458 3.52606 20.9058 3.927 20.9066H3.98512V20.9861C3.98453 21.387 4.14315 21.7717 4.42612 22.0557C4.70909 22.3396 5.09325 22.4996 5.49413 22.5004H7.57763C7.77613 22.5 7.97263 22.4606 8.1559 22.3843C8.33917 22.308 8.50561 22.1964 8.64574 22.0558C8.78586 21.9152 8.89692 21.7483 8.97256 21.5648C9.04821 21.3813 9.08697 21.1846 9.08663 20.9861V20.9063H14.9126V20.9858C14.912 21.3866 15.0706 21.7712 15.3535 22.0552C15.6364 22.3391 16.0204 22.4991 16.4213 22.5H18.5048C18.7033 22.4997 18.8998 22.4602 19.083 22.3839C19.2663 22.3076 19.4327 22.196 19.5729 22.0554C19.713 21.9148 19.824 21.748 19.8997 21.5644C19.9753 21.3809 20.0141 21.1843 20.0137 20.9858V20.9063H20.0719C20.2704 20.9059 20.467 20.8665 20.6503 20.7902C20.8336 20.7139 21.0001 20.6022 21.1403 20.4615C21.2804 20.3209 21.3915 20.154 21.4672 19.9704C21.5428 19.7869 21.5816 19.5902 21.5812 19.3916V16.6598C21.5812 16.6598 20.5984 14.3209 19.0931 13.1149C18.7211 11.7975 18.144 10.0905 17.433 9.07425C17.3874 8.96388 17.3359 8.85609 17.2785 8.75138C19.6755 9.05325 23.25 8.74688 23.25 7.83113ZM11.9914 4.722C12.7691 4.722 13.5187 4.7595 14.2455 4.818C14.1304 5.03363 14.0074 5.232 13.905 5.29388C13.5439 5.51175 12.8141 5.6475 12 5.6475C11.1859 5.6475 10.4558 5.51213 10.0946 5.29388C9.99225 5.23163 9.86887 5.03288 9.75412 4.8165C10.4983 4.75511 11.2447 4.72359 11.9914 4.722ZM7.2075 3.77963C7.30387 3.63038 7.58025 3.56625 7.87537 3.56625C8.208 3.56625 8.56463 3.64725 8.71425 3.77963C9.1245 4.14038 9.43463 5.33288 9.90075 5.61488C10.3504 5.88675 11.175 6.0225 12 6.0225C12.825 6.0225 13.6489 5.88675 14.0989 5.61488C14.5654 5.33288 14.8755 4.14038 15.2854 3.77963C15.4354 3.64725 15.792 3.56625 16.1246 3.56625C16.4198 3.56625 16.6965 3.63 16.7929 3.77963C17.2466 4.4835 16.2682 6.1095 15.3577 6.96375C14.4019 6.45975 13.2424 6.17063 12.054 6.17063C10.8428 6.17063 9.65288 6.471 8.67263 6.99338C7.75463 6.14775 6.74812 4.49175 7.2075 3.77963ZM17.2984 9.558C17.4675 10.191 17.4019 10.8229 17.1514 11.4086L16.0162 9.55613L15.5239 9.72225L16.6252 12.2595C15.7151 13.3481 14.0554 14.1191 11.9546 14.1191C8.3295 14.1191 6.06375 11.8305 6.73125 9.55838C7.26938 7.728 9.61387 6.48638 12.0555 6.48638C14.4971 6.48638 16.8086 7.72763 17.2984 9.558Z"
          fill="#C8B275"/>
    <path d="M12.0337 8.14014C10.8934 8.14014 9.88648 8.76939 9.77585 9.61201C9.6536 10.536 10.641 11.3546 11.9914 11.3546C13.3414 11.3546 14.3497 10.5356 14.2522 9.61201C14.1637 8.76939 13.173 8.14014 12.0337 8.14014Z"
          fill="#C8B275"/>
    <path d="M11.3795 7.68774C11.7372 7.91949 12.3357 7.91949 12.6998 7.68774C13.0538 7.46236 13.0366 7.11024 12.6788 6.89986C12.3301 6.69549 11.7743 6.69549 11.4207 6.89986C11.0566 7.11024 11.0311 7.46236 11.3795 7.68774Z"
          fill="#C8B275"/>
    <path d="M14.4713 8.50034C15.0109 8.50034 15.399 8.21796 15.3386 7.88121C15.2813 7.55721 14.8264 7.30371 14.3228 7.30371C13.8176 7.30371 13.4276 7.55796 13.4501 7.88121C13.4734 8.21796 13.9298 8.50034 14.4713 8.50034Z"
          fill="#C8B275"/>
    <path d="M13.6994 11.4946C13.7339 11.9903 14.296 12.4092 14.9571 12.4092C15.6149 12.4092 16.0746 11.9903 15.9861 11.4946C15.901 11.0213 15.3434 10.6538 14.7385 10.6538C14.1314 10.6538 13.6667 11.0217 13.6994 11.4946Z"
          fill="#C8B275"/>
    <path d="M12.8048 11.785C12.35 11.4389 11.6285 11.4389 11.1657 11.785C10.6865 12.1424 10.6418 12.7484 11.0945 13.1406C11.5647 13.5467 12.3597 13.5467 12.8393 13.1406C13.3036 12.7484 13.2743 12.142 12.8048 11.785Z"
          fill="#C8B275"/>
    <path d="M9.26193 10.6538C8.65555 10.6538 8.08893 11.0209 7.99143 11.4946C7.8898 11.9892 8.33755 12.4092 8.99718 12.4092C9.6568 12.4092 10.2313 11.9892 10.2786 11.4946C10.3232 11.0213 9.86793 10.6538 9.26193 10.6538Z"
          fill="#C8B275"/>
    <path d="M9.00737 10.037C9.46637 9.74558 9.53237 9.29183 9.17874 9.0222C8.83487 8.76083 8.20712 8.76083 7.75449 9.0222C7.28912 9.29183 7.16724 9.74558 7.50437 10.037C7.85199 10.3373 8.53487 10.3373 9.00737 10.037Z"
          fill="#C8B275"/>
    <path d="M9.5861 8.50034C10.1257 8.50034 10.5919 8.21759 10.6234 7.88159C10.6549 7.55721 10.2705 7.30371 9.76648 7.30371C9.26173 7.30371 8.80161 7.55721 8.73523 7.88159C8.66586 8.21759 9.04535 8.50034 9.5861 8.50034Z"
          fill="#C8B275"/>
</svg>
