<svg width="20" height="15" viewBox="0 0 20 15" fill="none" xmlns="http://www.w3.org/2000/svg">
    <g clip-path="url(#clip0_540_6752)">
        <path fill-rule="evenodd" clip-rule="evenodd"
              d="M7.98844 9.91961V4.3078C9.98064 5.24523 11.5236 6.1508 13.3485 7.12713C11.8433 7.96184 9.98064 8.89841 7.98844 9.91961ZM19.091 1.51678C18.7474 1.06402 18.1616 0.711585 17.5381 0.594905C15.7053 0.246855 4.27098 0.245865 2.43915 0.594905C1.93911 0.688645 1.49384 0.915228 1.11133 1.26727C-0.500362 2.76317 0.00466618 10.7852 0.393147 12.0847C0.556507 12.6471 0.76769 13.0528 1.03365 13.319C1.37631 13.6711 1.84547 13.9135 2.38436 14.0222C3.89345 14.3343 11.668 14.5088 17.5062 14.069C18.0441 13.9753 18.5202 13.7251 18.8958 13.3581C20.3859 11.8682 20.2843 3.39563 19.091 1.51678Z"
              fill="white"/>
    </g>
    <defs>
        <clipPath id="clip0_540_6752">
            <rect width="20" height="14.6667" fill="white"/>
        </clipPath>
    </defs>
</svg>
