<?xml version="1.0" encoding="utf-8"?>
<!-- Generator: Adobe Illustrator 27.6.1, SVG Export Plug-In . SVG Version: 6.00 Build 0)  -->
<svg viewBox="-0.168 0 122.456 120.717" xmlns="http://www.w3.org/2000/svg">
    <g transform="matrix(1, 0, 0, 1, -78.82666778564453, -21.14746475219728)">
        <path class="st1"
              d="M100.95,84.81l1.56,1.14l7.48,5.48v-5.39V85.1l0.68-0.67l23.11-22.74l1.76-1.73l1.59,1.89l30.17,35.77&#10;&#9;c4.86-7.12,7.7-15.72,7.7-24.98v0c0-24.51-19.87-44.39-44.39-44.39H86.22v70.85l13.34-12.94L100.95,84.81z"
              style="fill: rgb(200, 178, 117);"/>
        <g>
            <path class="st0"
                  d="M169.23,103.8l-11.21,4.1c3.89-2.56,6.58-5.8,8.04-7.85c0,0,0,0,0,0l-0.17-0.2l-30.51-36.17l0,0v53.43v19.91&#10;&#9;&#9;&#9;h0h51.31h10.55L169.23,103.8z"
                  style="fill: rgb(3, 97, 95);"/>
            <polygon class="st0"
                     points="101.15,88.15 101.15,117.36 101.15,137.23 121.18,137.23 122.68,137.23 122.68,137.01 122.68,117.36&#10;&#9;&#9;&#9;122.68,102.96 112.27,95.8 &#9;&#9;"
                     style="fill: rgb(3, 97, 95);"/>
        </g>
    </g>
</svg>
