<?xml version="1.0" encoding="utf-8"?>
<svg viewBox="-91.226 15.617 330.544 126.495" xmlns="http://www.w3.org/2000/svg">
  <g transform="matrix(1, 0, 0, 1, 32.445430755615234, -3.08809494972229)">
    <g transform="matrix(1, 0, 0, 1, -164.182007, -107.354652)">
      <path class="st0" d="M206.2,209.77v-2.58c5.13,0,12.51-0.73,12.51-11.48v-21.09h7.03v22.48&#10;&#9;&#9;&#9;C225.74,208.66,212.39,209.77,206.2,209.77z" style="fill: rgb(3, 97, 95);"/>
      <path class="st0" d="M157.76,158.32v51.45h-7.03v-44.28c0-3.02-1.9-5.62-6.26-6.82v-0.35H157.76z" style="fill: rgb(3, 97, 95);"/>
      <path class="st0" d="M138.86,174.56h-7.03v23.27c0,6.68-3.94,9.63-6.96,9.63c-4.29,0-6.89-1.97-8.79-4.57l-0.07-28.33h-7.03v23.27&#10;&#9;&#9;&#9;c0,6.68-3.94,9.63-6.96,9.63c-4.22,0-7.1-2.25-8.93-4.5v-5.39c-0.02,0.03-0.05,0.06-0.07,0.09v-9.32v-13.78H80.37v0.32&#10;&#9;&#9;&#9;c3.88,1.08,5.66,3.43,5.66,6.17v7.29v17.77c0,13.99-11.83,13.16-11.83,13.16c-3.69,0-14.63-1.46-14.63-13.16v-24.65h-2.86v24.65&#10;&#9;&#9;&#9;c0,2.86,0.51,15.96,18.12,15.96c0,0,16.83,0.82,18.1-14.13c0.05,0.04,0.1,0.08,0.16,0.12v-2c2.18,2.04,5.13,3.73,9,3.73&#10;&#9;&#9;&#9;c6.33,0,10.26-2.04,12.3-5.13c2.53,2.95,6.12,5.13,10.54,5.13c9.98,0,13.99-5.9,13.99-11.53L138.86,174.56z" style="fill: rgb(3, 97, 95);"/>
      <path class="st0" d="M183.47,174.56c-5.33,0-8.7,1.7-10.86,3.95c0,0-0.02-0.03-0.02-0.03s-0.41,0.41-0.95,1.14&#10;&#9;&#9;&#9;c-0.06,0.09-0.12,0.17-0.18,0.26c-1.63,2.27-4.11,7.06-1.07,12.34c0.26,0.45,0.53,0.88,0.81,1.27c0.19,0.28,0.4,0.53,0.62,0.79&#10;&#9;&#9;&#9;c0.54,0.66,1.09,1.22,1.66,1.7c0.03,0.03,0.06,0.06,0.09,0.08c1.42,1.19,2.87,1.86,4.12,2.23c4.38,1.69,9.57,2,13.67,2.04&#10;&#9;&#9;&#9;c-3.51,8.4-12.57,12.33-21.18,2.29l-1.2,1.12c0.42,0.91,4.36,7.03,14.48,7.03c10.83,0,17.15-7.87,17.15-18.14&#10;&#9;&#9;&#9;C200.62,182.36,194.3,174.56,183.47,174.56z M188.11,197.82c-0.96,0-4.6-0.3-7.38-3.12c-3.09-3.33-3.37-7.56-3.14-10.29&#10;&#9;&#9;&#9;c0-0.04,0.01-0.09,0.01-0.13c0.01-0.07,0.02-0.12,0.02-0.18c0.08-0.64,0.16-1.24,0.28-1.79c0,0,0-0.01,0-0.01&#10;&#9;&#9;&#9;c0.73-3.54,2.32-5.27,5.49-5.27c4.43,0,8.36,2.46,9.28,11.32l0.21,2.67v1.62c0,1.82-0.25,3.56-0.68,5.2H188.11z" style="fill: rgb(3, 97, 95);"/>
      <g>
        <path class="st1" d="M224.71,158.32l2.04,3.4l-24.93,4.08l0.09-0.59L224.71,158.32z" style="fill: rgb(200, 178, 117);"/>
      </g>
    </g>
    <path class="st1" d="M100.95,84.81l1.56,1.14l7.48,5.48v-5.39V85.1l0.68-0.67l23.11-22.74l1.76-1.73l1.59,1.89l30.17,35.77&#10;&#9;&#9;c4.86-7.12,7.7-15.72,7.7-24.98v0c0-24.51-19.87-44.39-44.39-44.39H86.22v70.85l13.34-12.94L100.95,84.81z" style="fill: rgb(200, 178, 117);"/>
    <g>
      <path class="st0" d="M169.23,103.8l-11.21,4.1c3.89-2.56,6.58-5.8,8.04-7.85c0,0,0,0,0,0l-0.17-0.2l-30.51-36.17l0,0v53.43v19.91&#10;&#9;&#9;&#9;h0h51.31h10.55L169.23,103.8z" style="fill: rgb(3, 97, 95);"/>
      <polygon class="st0" points="101.15,88.15 101.15,117.36 101.15,137.23 121.18,137.23 122.68,137.23 122.68,137.01 122.68,117.36&#10;&#9;&#9;&#9;122.68,102.96 112.27,95.8 &#9;&#9;" style="fill: rgb(3, 97, 95);"/>
    </g>
  </g>
</svg>